<?xml version="1.0" encoding="UTF-8"?>
<svg width="600" height="170" version="1.1" xmlns="http://www.w3.org/2000/svg">
 <path d="m585.06 53.922c-0.29779-0.16523-0.77577-0.24815-1.4263-0.24815h-1.0048v2.4201h1.0629c0.49783 0 0.87197-0.0507 1.1209-0.14859 0.46271-0.18249 0.69025-0.53204 0.69025-1.0468 0-0.48333-0.14813-0.81135-0.44286-0.97658zm-1.2721-1.0534c0.83075 0 1.437 0.07987 1.8234 0.24205 0.69025 0.28633 1.0369 0.85258 1.0369 1.6925 0 0.5971-0.21685 1.0367-0.65207 1.3159-0.23365 0.15271-0.55434 0.2619-0.96665 0.32512 0.52532 0.08231 0.90709 0.30176 1.1484 0.65558 0.24129 0.35246 0.36193 0.69911 0.36193 1.0355v0.48669c0 0.15638 6e-3 0.31855 0.0153 0.49692 0.0137 0.17775 0.0321 0.29534 0.058 0.34604l0.0443 0.08643h-1.1026c-6e-3 -0.0226-0.0122-0.04474-0.0168-0.0704-6e-3 -0.01909-0.0122-0.04474-0.0168-0.06979l-0.0244-0.21593v-0.52853c0-0.77241-0.2138-1.2812-0.63375-1.53-0.24433-0.14263-0.68414-0.21532-1.3102-0.21532h-0.9239v2.63h-1.182v-6.6827zm-3.5841-0.34008c-1.014 1.0236-1.5225 2.2578-1.5225 3.7057 0 1.4596 0.507 2.7034 1.5164 3.7306 1.0186 1.0302 2.251 1.5427 3.7048 1.5427 1.4538 0 2.6877-0.5125 3.7093-1.5427 1.014-1.0271 1.5225-2.271 1.5225-3.7306 0-1.4478-0.50852-2.682-1.5225-3.7057-1.0247-1.0296-2.2616-1.5421-3.7093-1.5421-1.4401 0-2.6724 0.5125-3.6986 1.5421zm8.0127 8.0191c-1.1911 1.1911-2.6281 1.7901-4.314 1.7901-1.6859 0-3.1183-0.59893-4.3018-1.7901-1.1759-1.1901-1.7653-2.6277-1.7653-4.3231 0-1.6732 0.59404-3.1049 1.7806-4.2931 1.1835-1.1812 2.6113-1.7753 4.2866-1.7753 1.6859 0 3.1229 0.59404 4.314 1.7753 1.185 1.1823 1.7806 2.6139 1.7806 4.2931 0 1.6894-0.59557 3.1264-1.7806 4.3231m-31.515 11.637v56.026c0 3.1108 2.9855 5.312 6.5039 5.312h8.0845v24.719h-14.764c-19.689 0-30.76-13.549-30.76-27.466v-58.59h-13.361v-21.976h13.361v-18.672h30.936v18.672h15.993v21.976h-15.993m-82.891 86.057v-108.03h31.115v108.03zm0-120.52v-25.965h31.115v25.965zm-38.651 0.03604v33.324h23.377v27.097h-23.377v60.059h-32.346v-146.48h63.628v26.002h-31.283m-76.813 122.31c-22.673 0-36.206-10.621-36.206-26.92v-11.169h28.299v9.3374c0 3.6644 2.816 6.2277 7.382 6.2277 4.5721 0 7.2079-1.8313 7.2079-8.0561 0-9.7043-7.2079-12.636-23.556-21.242-15.291-7.6873-18.802-18.492-18.802-30.209 0-22.523 16.345-29.846 35.675-29.846 20.917 0 35.333 10.616 35.333 27.098v10.253h-28.122v-8.4217c0-3.6644-1.9348-5.8584-6.5085-5.8584-4.9142 0-7.2049 2.194-7.2049 7.506 0 8.059 4.5737 8.788 16.525 15.014 22.323 11.17 25.837 25.081 25.837 36.62 0 15.381-10.366 29.664-35.859 29.664m-78.921 6.1e-4c-22.673 0-36.206-10.621-36.206-26.92v-11.169h28.297v9.3374c0 3.6644 2.816 6.2277 7.3851 6.2277 4.5676 0 7.2049-1.8313 7.2049-8.0561 0-9.7043-7.2049-12.636-23.551-21.242-15.292-7.6873-18.806-18.492-18.806-30.209 0-22.523 16.345-29.846 35.676-29.846 20.917 0 35.329 10.616 35.329 27.098v10.253h-28.122v-8.4217c0-3.6644-1.9333-5.8584-6.5039-5.8584-4.9188 0-7.2033 2.194-7.2033 7.506 0 8.059 4.5706 8.788 16.523 15.014 22.319 11.17 25.837 25.081 25.837 36.62 0 15.381-10.371 29.664-35.861 29.664m-75.21-83.499c0-3.6573-2.984-5.3048-6.6765-5.3048-3.691 0-6.5024 1.6476-6.5024 5.3048v55.118c0 3.6579 2.8114 5.3084 6.5024 5.3084 3.6925 0 6.6765-1.6505 6.6765-5.3084zm-6.6765 83.499c-20.741 0-37.616-10.621-37.616-26.92v-57.857c0-16.482 16.874-27.098 37.616-27.098 20.741 0 37.616 10.616 37.616 27.098v57.857c0 16.299-16.874 26.92-37.616 26.92m-69.075-66.591v64.76h-30.939v-110.04h29.183l1.928 11.533c4.5729-6.7747 10.899-11.533 25.135-11.533v25.997c-17.05 0-25.307 9.3999-25.307 19.286m-78.74 67.51c-23.728 0-39.724-15.751-39.724-30.58v-90.818c0-14.833 15.996-30.579 39.724-30.579 23.374 0 38.669 15.746 38.669 30.579v28.198h-31.99v-23.804c0-3.8434-2.9891-6.2254-6.6798-6.2254-4.045 0-7.0306 2.382-7.0306 6.2254v82.027c0 3.8477 2.9856 6.2307 7.0306 6.2307 3.6907 0 6.6798-2.383 6.6798-6.2307v-23.795h31.99v28.193c0 14.831-15.295 30.58-38.669 30.58"/>
</svg>
