<?xml version="1.0" encoding="UTF-8" standalone="no"?>
<!DOCTYPE svg PUBLIC "-//W3C//DTD SVG 1.1//EN" "http://www.w3.org/Graphics/SVG/1.1/DTD/svg11.dtd">
<svg width="100%" height="100%" viewBox="0 0 1920 307" version="1.1" xmlns="http://www.w3.org/2000/svg" xmlns:xlink="http://www.w3.org/1999/xlink" xml:space="preserve" xmlns:serif="http://www.serif.com/" style="fill-rule:evenodd;clip-rule:evenodd;stroke-linejoin:round;stroke-miterlimit:2;">
    <g transform="matrix(3.522293,0,0,3.522293,974.242718,156.822638)">
        <g transform="matrix(1,0,0,1,-314,-107.5)">
            <g transform="matrix(0.1,0,0,-0.1,0,215)">
                <path d="M4243,1420C4156,1402 4091,1347 4065,1272C4045,1212 4044,923 4064,867C4098,773 4174,721 4290,712C4417,703 4517,747 4562,832C4584,873 4585,886 4585,1071L4585,1267L4555,1316C4502,1401 4367,1446 4243,1420ZM4397,1301C4462,1271 4470,1247 4470,1068C4470,904 4465,881 4418,847C4382,820 4296,813 4247,833C4180,861 4170,893 4170,1068C4170,1247 4178,1271 4243,1301C4296,1325 4344,1325 4397,1301Z" style="fill-rule:nonzero;"/>
                <path d="M542,1068L545,725L659,719L665,1015L945,1015L948,868L951,720L1060,720L1060,1410L951,1410L948,1268L945,1125L803,1122L660,1119L660,1410L540,1410L542,1068Z" style="fill-rule:nonzero;"/>
                <path d="M1710,1394C1710,1385 1764,1291 1830,1184L1950,990L1950,720L2060,720L2060,858L2061,995L2180,1185C2246,1289 2300,1383 2300,1392C2300,1407 2291,1410 2243,1410L2185,1410L2096,1259L2007,1109L1959,1192C1932,1238 1894,1305 1873,1342L1835,1410L1773,1410C1722,1410 1710,1407 1710,1394Z" style="fill-rule:nonzero;"/>
                <path d="M2930,1410L2930,720L3039,720L3042,853L3045,985L3112,988L3178,991L3322,719L3378,722C3422,724 3436,729 3438,742C3440,751 3412,812 3377,877L3313,994L3360,1040C3442,1117 3454,1250 3387,1344C3348,1399 3305,1410 3108,1410L2930,1410ZM3254,1296C3306,1274 3325,1199 3295,1139C3274,1099 3245,1090 3134,1090L3040,1090L3040,1193C3040,1250 3043,1300 3047,1303C3059,1316 3220,1310 3254,1296Z" style="fill-rule:nonzero;"/>
                <path d="M5180,1389C5180,1378 5223,1306 5275,1229C5327,1153 5370,1086 5370,1081C5370,1075 5323,1001 5265,916C5207,831 5160,753 5160,741C5160,722 5166,720 5218,720L5275,720L5359,849C5406,921 5447,977 5450,975C5454,973 5494,914 5540,845L5623,720L5681,720C5736,720 5740,722 5740,743C5740,755 5693,834 5635,918C5577,1002 5530,1075 5530,1081C5530,1086 5573,1153 5625,1229C5677,1306 5720,1377 5720,1389C5720,1408 5714,1410 5663,1410L5605,1410L5530,1295C5489,1232 5453,1180 5450,1180C5447,1180 5413,1231 5375,1293L5304,1405L5242,1408C5184,1411 5180,1409 5180,1389Z" style="fill-rule:nonzero;"/>
            </g>
        </g>
    </g>
</svg>
