<?xml version="1.0" encoding="UTF-8" standalone="no"?>
<!DOCTYPE svg PUBLIC "-//W3C//DTD SVG 1.1//EN" "http://www.w3.org/Graphics/SVG/1.1/DTD/svg11.dtd">
<svg width="100%" height="100%" viewBox="0 0 1317 589" version="1.1" xmlns="http://www.w3.org/2000/svg" xmlns:xlink="http://www.w3.org/1999/xlink" xml:space="preserve" xmlns:serif="http://www.serif.com/" style="fill-rule:evenodd;clip-rule:evenodd;stroke-linejoin:round;stroke-miterlimit:2;">
    <g transform="matrix(3.763365,0,0,3.763365,-461.981712,-529.763027)">
        <path d="M450.098,278.028C448.055,277.109 446.453,275.838 445.291,274.206C444.13,272.577 443.532,270.693 443.495,268.557L448.945,268.557C449.131,270.396 449.889,271.941 451.221,273.195C452.548,274.451 454.488,275.079 457.037,275.079C459.47,275.079 461.391,274.471 462.797,273.249C464.201,272.033 464.903,270.468 464.903,268.557C464.903,267.062 464.491,265.845 463.67,264.908C462.844,263.971 461.815,263.257 460.576,262.773C459.341,262.283 457.675,261.761 455.577,261.199C452.99,260.522 450.922,259.85 449.366,259.173C447.812,258.501 446.481,257.446 445.376,256C444.273,254.561 443.719,252.621 443.719,250.183C443.719,248.048 444.26,246.159 445.35,244.508C446.435,242.862 447.962,241.586 449.928,240.69C451.896,239.79 454.153,239.341 456.7,239.341C460.371,239.341 463.38,240.26 465.719,242.093C468.058,243.928 469.38,246.365 469.68,249.397L464.061,249.397C463.873,247.901 463.085,246.58 461.7,245.436C460.313,244.294 458.478,243.721 456.195,243.721C454.058,243.721 452.317,244.275 450.966,245.382C449.621,246.485 448.945,248.03 448.945,250.014C448.945,251.44 449.349,252.602 450.154,253.498C450.957,254.4 451.953,255.08 453.132,255.552C454.313,256.019 455.969,256.553 458.106,257.152C460.69,257.867 462.767,258.565 464.343,259.262C465.916,259.951 467.263,261.021 468.387,262.461C469.512,263.908 470.072,265.865 470.072,268.333C470.072,270.246 469.566,272.042 468.558,273.73C467.545,275.417 466.046,276.783 464.061,277.832C462.075,278.878 459.733,279.405 457.037,279.405C454.451,279.405 452.138,278.947 450.098,278.028M417.115,278.028C415.07,277.109 413.468,275.838 412.308,274.206C411.146,272.577 410.546,270.693 410.511,268.557L415.961,268.557C416.148,270.396 416.905,271.941 418.237,273.195C419.565,274.451 421.505,275.079 424.053,275.079C426.486,275.079 428.406,274.471 429.813,273.249C431.217,272.033 431.918,270.468 431.918,268.557C431.918,267.062 431.507,265.845 430.685,264.908C429.86,263.971 428.83,263.257 427.592,262.773C426.356,262.283 424.69,261.761 422.593,261.199C420.006,260.522 417.936,259.85 416.382,259.173C414.828,258.501 413.497,257.446 412.392,256C411.289,254.561 410.735,252.621 410.735,250.183C410.735,248.048 411.276,246.159 412.365,244.508C413.451,242.862 414.978,241.586 416.945,240.69C418.91,239.79 421.168,239.341 423.715,239.341C427.387,239.341 430.393,240.26 432.735,242.093C435.075,243.928 436.395,246.365 436.695,249.397L431.077,249.397C430.888,247.901 430.101,246.58 428.715,245.436C427.329,244.294 425.494,243.721 423.21,243.721C421.075,243.721 419.331,244.275 417.982,245.382C416.637,246.485 415.961,248.03 415.961,250.014C415.961,251.44 416.365,252.602 417.17,253.498C417.973,254.4 418.968,255.08 420.149,255.552C421.327,256.019 422.985,256.553 425.121,257.152C427.704,257.867 429.783,258.565 431.358,259.262C432.931,259.951 434.279,261.021 435.403,262.461C436.527,263.908 437.088,265.865 437.088,268.333C437.088,270.246 436.582,272.042 435.573,273.73C434.56,275.417 433.062,276.783 431.077,277.832C429.09,278.878 426.75,279.405 424.053,279.405C421.467,279.405 419.153,278.947 417.115,278.028M392.613,273.053C394.805,271.782 396.526,269.966 397.782,267.606C399.037,265.242 399.663,262.513 399.663,259.398C399.663,256.253 399.037,253.509 397.782,251.166C396.526,248.825 394.812,247.019 392.639,245.748C390.468,244.473 387.996,243.836 385.222,243.836C382.45,243.836 379.977,244.473 377.805,245.748C375.633,247.019 373.918,248.825 372.666,251.166C371.41,253.509 370.78,256.253 370.78,259.398C370.78,262.513 371.41,265.242 372.666,267.606C373.918,269.966 375.643,271.782 377.834,273.053C380.025,274.328 382.487,274.964 385.222,274.964C387.957,274.964 390.422,274.328 392.613,273.053M375.276,276.849C372.278,275.143 369.91,272.765 368.17,269.71C366.428,266.66 365.556,263.222 365.556,259.398C365.556,255.579 366.428,252.14 368.17,249.091C369.91,246.036 372.278,243.658 375.276,241.952C378.274,240.246 381.589,239.395 385.222,239.395C388.894,239.395 392.229,240.246 395.225,241.952C398.22,243.658 400.582,246.027 402.305,249.059C404.028,252.094 404.89,255.544 404.89,259.398C404.89,263.257 404.028,266.706 402.305,269.736C400.582,272.774 398.22,275.143 395.225,276.849C392.229,278.553 388.894,279.405 385.222,279.405C381.589,279.405 378.274,278.553 375.276,276.849M338.417,258.896L345.946,258.896C348.717,258.896 350.797,258.213 352.183,256.841C353.568,255.475 354.261,253.65 354.261,251.364C354.261,249.041 353.578,247.243 352.21,245.972C350.844,244.696 348.755,244.061 345.946,244.061L338.417,244.061L338.417,258.896ZM353.925,279.011L344.596,262.997L338.417,262.997L338.417,279.011L333.303,279.011L333.303,239.844L345.946,239.844C348.904,239.844 351.406,240.352 353.448,241.363C355.489,242.373 357.013,243.741 358.026,245.465C359.038,247.188 359.543,249.154 359.543,251.364C359.543,254.062 358.765,256.44 357.211,258.501C355.656,260.564 353.325,261.928 350.216,262.603L360.051,279.011L353.925,279.011ZM290.598,249.091C292.322,246.036 294.671,243.649 297.651,241.925C300.627,240.202 303.933,239.341 307.566,239.341C311.838,239.341 315.565,240.37 318.75,242.433C321.933,244.491 324.256,247.413 325.718,251.195L319.592,251.195C318.506,248.834 316.942,247.019 314.9,245.748C312.858,244.473 310.415,243.836 307.566,243.836C304.833,243.836 302.38,244.473 300.207,245.748C298.032,247.019 296.33,248.825 295.092,251.166C293.858,253.509 293.237,256.253 293.237,259.398C293.237,262.513 293.858,265.237 295.092,267.574C296.33,269.915 298.032,271.727 300.207,272.998C302.38,274.273 304.833,274.909 307.566,274.909C310.415,274.909 312.858,274.284 314.9,273.025C316.942,271.773 318.506,269.966 319.592,267.606L325.718,267.606C324.256,271.352 321.933,274.246 318.75,276.285C315.565,278.33 311.838,279.35 307.566,279.35C303.933,279.35 300.627,278.495 297.651,276.794C294.671,275.088 292.322,272.719 290.598,269.682C288.873,266.651 288.013,263.222 288.013,259.398C288.013,255.579 288.873,252.14 290.598,249.091M424.971,224.202C419.861,220.42 417.115,215.005 416.725,207.955L436.998,207.955C437.19,210.348 437.903,212.095 439.132,213.193C440.36,214.293 441.945,214.843 443.885,214.843C445.63,214.843 447.068,214.406 448.201,213.532C449.331,212.659 449.898,211.446 449.898,209.896C449.898,207.893 448.959,206.341 447.085,205.239C445.208,204.141 442.171,202.911 437.966,201.555C433.506,200.066 429.899,198.629 427.153,197.238C424.403,195.848 422.011,193.811 419.974,191.128C417.938,188.444 416.919,184.936 416.919,180.603C416.919,176.206 418.017,172.441 420.217,169.303C422.414,166.168 425.455,163.79 429.334,162.174C433.214,160.559 437.611,159.749 442.526,159.749C450.48,159.749 456.832,161.609 461.586,165.327C466.338,169.045 468.875,174.267 469.2,180.99L448.541,180.99C448.475,178.922 447.845,177.37 446.65,176.335C445.45,175.301 443.916,174.783 442.043,174.783C440.618,174.783 439.453,175.204 438.55,176.044C437.644,176.885 437.19,178.08 437.19,179.633C437.19,180.927 437.691,182.042 438.695,182.979C439.697,183.918 440.94,184.726 442.429,185.405C443.916,186.084 446.115,186.941 449.025,187.975C453.356,189.462 456.929,190.933 459.743,192.388C462.555,193.843 464.98,195.88 467.017,198.498C469.055,201.118 470.072,204.431 470.072,208.441C470.072,212.514 469.055,216.168 467.017,219.4C464.98,222.636 462.037,225.188 458.19,227.064C454.344,228.94 449.801,229.877 444.563,229.877C436.61,229.877 430.078,227.985 424.971,224.202M388.792,229.198L367.356,199.226L367.356,229.198L348.345,229.198L348.345,160.817L367.356,160.817L367.356,190.302L388.597,160.817L410.518,160.817L385.396,193.988L411.778,229.198L388.792,229.198ZM336.995,160.817L336.995,206.113C336.995,213.808 334.911,219.692 330.74,223.765C326.57,227.84 320.829,229.877 313.523,229.877C305.763,229.877 299.572,227.711 294.95,223.378C290.325,219.047 288.013,212.806 288.013,204.658L306.831,204.658C306.895,210.025 308.868,212.709 312.746,212.709C316.24,212.709 317.985,210.511 317.985,206.113L317.985,160.817L336.995,160.817ZM191.523,246.149L191.323,246.149C191.323,252.451 191.274,258.754 191.349,265.055C191.373,267.152 191.504,269.287 191.943,271.329C192.738,275.047 195.71,277.041 199.63,276.789C203.445,276.545 206.188,274.078 206.529,270.329C206.719,268.241 206.567,266.121 206.567,264.014C206.567,253.229 206.537,242.445 206.583,231.661C206.595,228.899 206.79,226.134 206.999,223.378C207.242,220.173 208.669,217.609 211.448,215.896C212.56,215.21 213.685,214.523 214.867,213.973C223.788,209.815 232.725,205.683 241.662,201.557C245.686,199.7 249.732,197.895 253.751,196.028C255.772,195.09 257.395,193.712 257.939,191.435C258.678,188.357 257.883,185.656 255.65,183.437C253.935,181.733 251.859,181.015 249.471,181.775C247.779,182.313 246.069,182.847 244.459,183.587C232.219,189.227 219.971,194.849 207.796,200.627C202.274,203.248 196.859,203.469 191.321,200.918C180.929,196.133 170.54,191.336 160.141,186.563C156.91,185.08 153.674,183.595 150.393,182.221C148.662,181.498 146.79,181.241 144.951,181.823C141.927,182.781 140.834,185.322 140.113,188.071C139.471,190.523 140.183,192.678 142.112,194.25C143.449,195.339 144.966,196.276 146.53,197.002C156.153,201.463 165.813,205.844 175.458,210.255C178.593,211.69 181.772,213.043 184.844,214.604C189.165,216.798 191.499,220.351 191.515,225.271C191.538,232.23 191.523,239.19 191.523,246.149M125.225,220.486C125.225,211.634 125.156,202.78 125.261,193.93C125.302,190.59 125.525,187.221 126.055,183.929C126.951,178.349 130.138,174.235 135.208,171.81C143.429,167.874 151.733,164.11 160.016,160.304C169.554,155.923 179.085,151.524 188.663,147.234C192.646,145.45 196.829,144.387 201.27,144.889C204.371,145.241 207.294,146.23 210.105,147.518C227.734,155.598 245.353,163.707 262.969,171.813C268.881,174.534 271.787,179.397 272.586,185.642C272.908,188.159 273.032,190.721 273.025,193.262C272.991,204.847 272.865,216.43 272.803,228.015C272.765,234.682 272.868,241.349 272.748,248.014C272.698,250.758 272.427,253.533 271.902,256.226C270.86,261.556 267.66,265.311 262.755,267.58C248.712,274.071 234.657,280.538 220.602,287.007C217.007,288.662 213.389,290.273 209.792,291.926C202.704,295.18 195.634,295.232 188.528,291.949C178.669,287.396 168.794,282.886 158.916,278.38C152.076,275.259 145.22,272.18 138.375,269.072C134.904,267.495 131.604,265.67 129.217,262.568C126.883,259.536 125.518,256.069 125.468,252.284C125.338,242.343 125.419,232.398 125.413,222.453L125.413,220.486L125.225,220.486Z" style="fill:rgb(35,31,32);fill-rule:nonzero;"/>
    </g>
</svg>
